<svg width="120" height="175" viewBox="0 0 120 175" fill="none" xmlns="http://www.w3.org/2000/svg">
<circle cx="60" cy="60" r="60" fill="#FBF8F5"/>
<path d="M88 29H32C31.7348 29 31.4804 29.1054 31.2929 29.2929C31.1054 29.4804 31 29.7348 31 30V34C31 34.2652 31.1054 34.5196 31.2929 34.7071C31.4804 34.8946 31.7348 35 32 35V87C32 87.2652 32.1054 87.5196 32.2929 87.7071C32.4804 87.8946 32.7348 88 33 88H34V90C34 90.2652 34.1054 90.5196 34.2929 90.7071C34.4804 90.8946 34.7348 91 35 91H38C38.2099 91 38.4145 90.934 38.5847 90.8113C38.755 90.6886 38.8824 90.5154 38.9487 90.3162L39.7212 88H81.2788L82.0513 90.3162C82.1176 90.5154 82.245 90.6886 82.4153 90.8113C82.5855 90.934 82.7901 91 83 91H86C86.2652 91 86.5196 90.8946 86.7071 90.7071C86.8946 90.5196 87 90.2652 87 90V88C87.2652 88 87.5196 87.8946 87.7071 87.7071C87.8946 87.5196 88 87.2652 88 87V35C88.2652 35 88.5196 34.8946 88.7071 34.7071C88.8946 34.5196 89 34.2652 89 34V30C89 29.7348 88.8946 29.4804 88.7071 29.2929C88.5196 29.1054 88.2652 29 88 29ZM37.2788 89H36V88H37.6125L37.2788 89ZM85 89H83.7212L83.3875 88H85V89ZM86 86H34V35H86V86ZM87 33H33V31H87V33Z" fill="#E9672B"/>
<path d="M36 85H59C59.2652 85 59.5196 84.8946 59.7071 84.7071C59.8946 84.5196 60 84.2652 60 84V37C60 36.7348 59.8946 36.4804 59.7071 36.2929C59.5196 36.1054 59.2652 36 59 36H36C35.7348 36 35.4804 36.1054 35.2929 36.2929C35.1054 36.4804 35 36.7348 35 37V84C35 84.2652 35.1054 84.5196 35.2929 84.7071C35.4804 84.8946 35.7348 85 36 85ZM37 38H58V83H37V38Z" fill="#E9672B"/>
<path d="M56 56C55.7348 56 55.4804 56.1054 55.2929 56.2929C55.1054 56.4804 55 56.7348 55 57V63C55 63.2652 55.1054 63.5196 55.2929 63.7071C55.4804 63.8946 55.7348 64 56 64C56.2652 64 56.5196 63.8946 56.7071 63.7071C56.8946 63.5196 57 63.2652 57 63V57C57 56.7348 56.8946 56.4804 56.7071 56.2929C56.5196 56.1054 56.2652 56 56 56Z" fill="#E9672B"/>
<path d="M62 85H84C84.2652 85 84.5196 84.8946 84.7071 84.7071C84.8946 84.5196 85 84.2652 85 84V76C85 75.7348 84.8946 75.4804 84.7071 75.2929C84.5196 75.1054 84.2652 75 84 75H62C61.7348 75 61.4804 75.1054 61.2929 75.2929C61.1054 75.4804 61 75.7348 61 76V84C61 84.2652 61.1054 84.5196 61.2929 84.7071C61.4804 84.8946 61.7348 85 62 85ZM63 77H83V83H63V77Z" fill="#E9672B"/>
<path d="M75 78H71C70.7348 78 70.4804 78.1054 70.2929 78.2929C70.1054 78.4804 70 78.7348 70 79C70 79.2652 70.1054 79.5196 70.2929 79.7071C70.4804 79.8946 70.7348 80 71 80H75C75.2652 80 75.5196 79.8946 75.7071 79.7071C75.8946 79.5196 76 79.2652 76 79C76 78.7348 75.8946 78.4804 75.7071 78.2929C75.5196 78.1054 75.2652 78 75 78Z" fill="#E9672B"/>
<path d="M62 74H84C84.2652 74 84.5196 73.8946 84.7071 73.7071C84.8946 73.5196 85 73.2652 85 73V65C85 64.7348 84.8946 64.4804 84.7071 64.2929C84.5196 64.1054 84.2652 64 84 64H62C61.7348 64 61.4804 64.1054 61.2929 64.2929C61.1054 64.4804 61 64.7348 61 65V73C61 73.2652 61.1054 73.5196 61.2929 73.7071C61.4804 73.8946 61.7348 74 62 74ZM63 66H83V72H63V66Z" fill="#E9672B"/>
<path d="M75 67H71C70.7348 67 70.4804 67.1054 70.2929 67.2929C70.1054 67.4804 70 67.7348 70 68C70 68.2652 70.1054 68.5196 70.2929 68.7071C70.4804 68.8946 70.7348 69 71 69H75C75.2652 69 75.5196 68.8946 75.7071 68.7071C75.8946 68.5196 76 68.2652 76 68C76 67.7348 75.8946 67.4804 75.7071 67.2929C75.5196 67.1054 75.2652 67 75 67Z" fill="#E9672B"/>
<path d="M62 63H84C84.2652 63 84.5196 62.8946 84.7071 62.7071C84.8946 62.5196 85 62.2652 85 62V37C85 36.7348 84.8946 36.4804 84.7071 36.2929C84.5196 36.1054 84.2652 36 84 36H62C61.7348 36 61.4804 36.1054 61.2929 36.2929C61.1054 36.4804 61 36.7348 61 37V62C61 62.2652 61.1054 62.5196 61.2929 62.7071C61.4804 62.8946 61.7348 63 62 63ZM63 38H83V61H63V38Z" fill="#E9672B"/>
<path d="M77.207 45.7929C77.1142 45.7 77.0039 45.6263 76.8826 45.5761C76.7613 45.5258 76.6312 45.4999 76.4999 45.4999C76.3686 45.4999 76.2385 45.5258 76.1172 45.5761C75.9959 45.6263 75.8856 45.7 75.7928 45.7929L66.7928 54.7929C66.6999 54.8857 66.6263 54.996 66.576 55.1173C66.5257 55.2386 66.4999 55.3686 66.4999 55.5C66.4999 55.6313 66.5257 55.7613 66.576 55.8827C66.6263 56.004 66.6999 56.1142 66.7928 56.2071C66.8856 56.3 66.9959 56.3736 67.1172 56.4239C67.2385 56.4741 67.3686 56.5 67.4999 56.5C67.6312 56.5 67.7613 56.4741 67.8826 56.4239C68.0039 56.3736 68.1142 56.3 68.207 56.2071L77.207 47.2071C77.2999 47.1142 77.3736 47.004 77.4238 46.8827C77.4741 46.7613 77.4999 46.6313 77.4999 46.5C77.4999 46.3686 77.4741 46.2386 77.4238 46.1173C77.3736 45.996 77.2999 45.8857 77.207 45.7929Z" fill="#E9672B"/>
<path d="M68.5001 51C68.6314 51.0002 68.7615 50.9744 68.8829 50.9242C69.0042 50.8739 69.1145 50.8002 69.2072 50.7072L74.2072 45.7072C74.3948 45.5196 74.5001 45.2652 74.5001 45C74.5001 44.7348 74.3948 44.4804 74.2072 44.2929C74.0197 44.1054 73.7653 44 73.5001 44C73.2349 44 72.9805 44.1054 72.793 44.2929L67.793 49.2929C67.6531 49.4328 67.5579 49.6109 67.5193 49.8049C67.4807 49.9989 67.5005 50.2 67.5762 50.3827C67.6519 50.5654 67.7801 50.7216 67.9445 50.8315C68.109 50.9414 68.3023 51 68.5001 51Z" fill="#E9672B"/>
<path d="M76.2928 50.2929L72.2928 54.2929C72.1052 54.4804 71.9999 54.7348 71.9999 55C71.9999 55.2652 72.1052 55.5196 72.2928 55.7071C72.4803 55.8947 72.7347 56 72.9999 56C73.2651 56 73.5195 55.8947 73.707 55.7071L77.707 51.7071C77.8946 51.5196 77.9999 51.2652 77.9999 51C77.9999 50.7348 77.8946 50.4804 77.707 50.2929C77.5195 50.1054 77.2651 50 76.9999 50C76.7347 50 76.4803 50.1054 76.2928 50.2929Z" fill="#E9672B"/>
<path d="M0.998047 169L6.11523 155.221H9.29883L14.3965 169H11.3105L10.0996 165.738H5.33398L4.11328 169H0.998047ZM6.29102 163.199H9.15234L7.69727 158.404L6.29102 163.199ZM15.7238 164.303C15.7238 163.587 15.8605 162.923 16.134 162.311C16.4139 161.699 16.7883 161.188 17.257 160.777C17.7258 160.361 18.2661 160.038 18.8781 159.811C19.4901 159.576 20.1314 159.459 20.802 159.459C21.6353 159.459 22.4068 159.635 23.1164 159.986C23.8326 160.331 24.4152 160.816 24.8645 161.441L22.5988 163.062C22.41 162.77 22.1529 162.538 21.8273 162.369C21.5083 162.2 21.1665 162.115 20.802 162.115C20.1835 162.115 19.6398 162.32 19.1711 162.73C18.7089 163.134 18.4777 163.658 18.4777 164.303C18.4777 164.947 18.7089 165.481 19.1711 165.904C19.6398 166.327 20.1835 166.539 20.802 166.539C21.1665 166.539 21.5083 166.458 21.8273 166.295C22.1529 166.126 22.41 165.895 22.5988 165.602L24.8645 167.203C24.4283 167.835 23.8521 168.326 23.1359 168.678C22.4198 169.023 21.6418 169.195 20.802 169.195C19.9035 169.195 19.0702 168.997 18.302 168.6C17.5337 168.196 16.912 167.617 16.4367 166.861C15.9615 166.106 15.7238 165.253 15.7238 164.303ZM26.9145 164.303C26.9145 163.587 27.0512 162.923 27.3246 162.311C27.6046 161.699 27.9789 161.188 28.4477 160.777C28.9164 160.361 29.4568 160.038 30.0688 159.811C30.6807 159.576 31.322 159.459 31.9926 159.459C32.8259 159.459 33.5974 159.635 34.307 159.986C35.0232 160.331 35.6059 160.816 36.0551 161.441L33.7895 163.062C33.6007 162.77 33.3435 162.538 33.018 162.369C32.699 162.2 32.3572 162.115 31.9926 162.115C31.3741 162.115 30.8305 162.32 30.3617 162.73C29.8995 163.134 29.6684 163.658 29.6684 164.303C29.6684 164.947 29.8995 165.481 30.3617 165.904C30.8305 166.327 31.3741 166.539 31.9926 166.539C32.3572 166.539 32.699 166.458 33.018 166.295C33.3435 166.126 33.6007 165.895 33.7895 165.602L36.0551 167.203C35.6189 167.835 35.0427 168.326 34.3266 168.678C33.6104 169.023 32.8324 169.195 31.9926 169.195C31.0941 169.195 30.2608 168.997 29.4926 168.6C28.7243 168.196 28.1026 167.617 27.6273 166.861C27.1521 166.106 26.9145 165.253 26.9145 164.303ZM38.7594 166.871C38.3232 166.116 38.1051 165.26 38.1051 164.303C38.1051 163.346 38.3232 162.496 38.7594 161.754C39.2021 161.012 39.7913 160.445 40.527 160.055C41.2691 159.658 42.0862 159.459 42.9781 159.459C43.6357 159.459 44.2574 159.579 44.8434 159.82C45.4293 160.061 45.9371 160.393 46.3668 160.816C46.7965 161.24 47.135 161.76 47.3824 162.379C47.6363 162.991 47.7633 163.658 47.7633 164.381C47.7633 164.628 47.7503 164.915 47.7242 165.24H40.8785C40.9436 165.742 41.204 166.129 41.6598 166.402C42.122 166.669 42.6298 166.803 43.1832 166.803C43.5869 166.803 43.971 166.728 44.3355 166.578C44.7066 166.428 45.0029 166.21 45.2242 165.924L47.2457 167.301C46.8095 167.952 46.2073 168.43 45.4391 168.736C44.6708 169.042 43.8505 169.195 42.9781 169.195C42.0862 169.195 41.2691 168.997 40.527 168.6C39.7913 168.196 39.2021 167.62 38.7594 166.871ZM40.9176 163.502H44.9605C44.8954 162.975 44.6643 162.577 44.2672 162.311C43.8766 162.037 43.4534 161.9 42.9977 161.9C42.5419 161.9 42.109 162.034 41.6988 162.301C41.2887 162.561 41.0283 162.962 40.9176 163.502ZM49.9012 165.982H52.4988C52.5118 166.262 52.6518 166.513 52.9188 166.734C53.1857 166.949 53.5047 167.057 53.8758 167.057C54.1948 167.044 54.465 166.969 54.6863 166.832C54.9077 166.689 55.0184 166.503 55.0184 166.275C55.0184 166.074 54.95 165.914 54.8133 165.797C54.6766 165.673 54.4389 165.569 54.1004 165.484L52.8797 165.162C52.3458 165.019 51.8901 164.84 51.5125 164.625C51.1349 164.41 50.8549 164.208 50.6727 164.02C50.4904 163.824 50.3504 163.596 50.2527 163.336C50.1551 163.069 50.0997 162.857 50.0867 162.701C50.0737 162.545 50.0704 162.35 50.077 162.115C50.09 161.419 50.4578 160.803 51.1805 160.27C51.9031 159.729 52.7495 159.459 53.7195 159.459C54.1036 159.459 54.4715 159.495 54.823 159.566C55.1811 159.632 55.5262 159.742 55.8582 159.898C56.1967 160.055 56.4865 160.25 56.7273 160.484C56.9747 160.719 57.1733 161.015 57.323 161.373C57.4728 161.725 57.5509 162.122 57.5574 162.564H54.9402C54.9272 162.018 54.5724 161.744 53.8758 161.744C53.5763 161.744 53.3354 161.809 53.1531 161.939C52.9773 162.063 52.8927 162.229 52.8992 162.438C52.9253 162.776 53.1987 163.01 53.7195 163.141L55.3016 163.561C55.7313 163.678 56.1056 163.834 56.4246 164.029C56.7501 164.218 56.9975 164.41 57.1668 164.605C57.3426 164.801 57.4826 165.012 57.5867 165.24C57.6974 165.468 57.7658 165.663 57.7918 165.826C57.8243 165.982 57.8406 166.132 57.8406 166.275C57.8406 166.751 57.7234 167.18 57.4891 167.564C57.2547 167.949 56.9422 168.258 56.5516 168.492C56.1609 168.72 55.728 168.893 55.2527 169.01C54.784 169.133 54.299 169.195 53.7977 169.195C53.4135 169.195 53.0359 169.15 52.6648 169.059C52.2938 168.974 51.9422 168.844 51.6102 168.668C51.2781 168.486 50.9852 168.271 50.7313 168.023C50.4773 167.77 50.2755 167.467 50.1258 167.115C49.9826 166.764 49.9077 166.386 49.9012 165.982ZM60.0371 165.982H62.6348C62.6478 166.262 62.7878 166.513 63.0547 166.734C63.3216 166.949 63.6406 167.057 64.0117 167.057C64.3307 167.044 64.6009 166.969 64.8223 166.832C65.0436 166.689 65.1543 166.503 65.1543 166.275C65.1543 166.074 65.0859 165.914 64.9492 165.797C64.8125 165.673 64.5749 165.569 64.2363 165.484L63.0156 165.162C62.4818 165.019 62.026 164.84 61.6484 164.625C61.2708 164.41 60.9909 164.208 60.8086 164.02C60.6263 163.824 60.4863 163.596 60.3887 163.336C60.291 163.069 60.2357 162.857 60.2227 162.701C60.2096 162.545 60.2064 162.35 60.2129 162.115C60.2259 161.419 60.5938 160.803 61.3164 160.27C62.0391 159.729 62.8854 159.459 63.8555 159.459C64.2396 159.459 64.6074 159.495 64.959 159.566C65.3171 159.632 65.6621 159.742 65.9941 159.898C66.3327 160.055 66.6224 160.25 66.8633 160.484C67.1107 160.719 67.3092 161.015 67.459 161.373C67.6087 161.725 67.6868 162.122 67.6934 162.564H65.0762C65.0632 162.018 64.7083 161.744 64.0117 161.744C63.7122 161.744 63.4714 161.809 63.2891 161.939C63.1133 162.063 63.0286 162.229 63.0352 162.438C63.0612 162.776 63.3346 163.01 63.8555 163.141L65.4375 163.561C65.8672 163.678 66.2415 163.834 66.5605 164.029C66.8861 164.218 67.1335 164.41 67.3027 164.605C67.4785 164.801 67.6185 165.012 67.7227 165.24C67.8333 165.468 67.9017 165.663 67.9277 165.826C67.9603 165.982 67.9766 166.132 67.9766 166.275C67.9766 166.751 67.8594 167.18 67.625 167.564C67.3906 167.949 67.0781 168.258 66.6875 168.492C66.2969 168.72 65.8639 168.893 65.3887 169.01C64.9199 169.133 64.4349 169.195 63.9336 169.195C63.5495 169.195 63.1719 169.15 62.8008 169.059C62.4297 168.974 62.0781 168.844 61.7461 168.668C61.4141 168.486 61.1211 168.271 60.8672 168.023C60.6133 167.77 60.4115 167.467 60.2617 167.115C60.1185 166.764 60.0436 166.386 60.0371 165.982ZM70.173 164.303C70.173 163.352 70.3911 162.506 70.8273 161.764C71.2701 161.015 71.856 160.445 72.5852 160.055C73.3208 159.658 74.1281 159.459 75.007 159.459C75.8859 159.459 76.6932 159.658 77.4289 160.055C78.1646 160.445 78.7538 161.015 79.1965 161.764C79.6457 162.506 79.8703 163.352 79.8703 164.303C79.8703 165.253 79.6457 166.103 79.1965 166.852C78.7538 167.6 78.1646 168.173 77.4289 168.57C76.6932 168.961 75.8859 169.156 75.007 169.156C74.1281 169.156 73.3208 168.961 72.5852 168.57C71.856 168.173 71.2701 167.604 70.8273 166.861C70.3911 166.113 70.173 165.26 70.173 164.303ZM72.9074 164.303C72.9074 164.934 73.1092 165.449 73.5129 165.846C73.923 166.243 74.4211 166.441 75.007 166.441C75.606 166.441 76.1073 166.246 76.5109 165.855C76.9211 165.458 77.1262 164.941 77.1262 164.303C77.1262 163.684 76.9211 163.176 76.5109 162.779C76.1008 162.382 75.5995 162.184 75.007 162.184C74.4211 162.184 73.923 162.382 73.5129 162.779C73.1092 163.176 72.9074 163.684 72.9074 164.303ZM82.6625 169V159.664H85.4457V161.92C85.6671 161.113 86.0284 160.501 86.5297 160.084C87.031 159.667 87.5486 159.459 88.0824 159.459C88.7074 159.459 89.2413 159.573 89.684 159.801L89.1859 162.301C88.8018 162.112 88.3266 162.018 87.7602 162.018C86.9659 162.018 86.3799 162.327 86.0023 162.945C85.6312 163.564 85.4457 164.495 85.4457 165.738V169H82.6625ZM92.066 157.359C91.7275 157.04 91.5582 156.653 91.5582 156.197C91.5582 155.742 91.7275 155.357 92.066 155.045C92.4111 154.732 92.8212 154.576 93.2965 154.576C93.7652 154.576 94.1656 154.732 94.4977 155.045C94.8297 155.357 94.9957 155.742 94.9957 156.197C94.9957 156.653 94.8297 157.04 94.4977 157.359C94.1656 157.678 93.7652 157.838 93.2965 157.838C92.8212 157.838 92.4111 157.678 92.066 157.359ZM91.9195 169V159.664H94.6832V169H91.9195ZM98.1297 166.871C97.6935 166.116 97.4754 165.26 97.4754 164.303C97.4754 163.346 97.6935 162.496 98.1297 161.754C98.5724 161.012 99.1616 160.445 99.8973 160.055C100.639 159.658 101.457 159.459 102.348 159.459C103.006 159.459 103.628 159.579 104.214 159.82C104.8 160.061 105.307 160.393 105.737 160.816C106.167 161.24 106.505 161.76 106.753 162.379C107.007 162.991 107.134 163.658 107.134 164.381C107.134 164.628 107.121 164.915 107.095 165.24H100.249C100.314 165.742 100.574 166.129 101.03 166.402C101.492 166.669 102 166.803 102.554 166.803C102.957 166.803 103.341 166.728 103.706 166.578C104.077 166.428 104.373 166.21 104.595 165.924L106.616 167.301C106.18 167.952 105.578 168.43 104.809 168.736C104.041 169.042 103.221 169.195 102.348 169.195C101.457 169.195 100.639 168.997 99.8973 168.6C99.1616 168.196 98.5724 167.62 98.1297 166.871ZM100.288 163.502H104.331C104.266 162.975 104.035 162.577 103.637 162.311C103.247 162.037 102.824 161.9 102.368 161.9C101.912 161.9 101.479 162.034 101.069 162.301C100.659 162.561 100.399 162.962 100.288 163.502ZM109.271 165.982H111.869C111.882 166.262 112.022 166.513 112.289 166.734C112.556 166.949 112.875 167.057 113.246 167.057C113.565 167.044 113.835 166.969 114.057 166.832C114.278 166.689 114.389 166.503 114.389 166.275C114.389 166.074 114.32 165.914 114.184 165.797C114.047 165.673 113.809 165.569 113.471 165.484L112.25 165.162C111.716 165.019 111.26 164.84 110.883 164.625C110.505 164.41 110.225 164.208 110.043 164.02C109.861 163.824 109.721 163.596 109.623 163.336C109.525 163.069 109.47 162.857 109.457 162.701C109.444 162.545 109.441 162.35 109.447 162.115C109.46 161.419 109.828 160.803 110.551 160.27C111.273 159.729 112.12 159.459 113.09 159.459C113.474 159.459 113.842 159.495 114.193 159.566C114.551 159.632 114.896 159.742 115.229 159.898C115.567 160.055 115.857 160.25 116.098 160.484C116.345 160.719 116.544 161.015 116.693 161.373C116.843 161.725 116.921 162.122 116.928 162.564H114.311C114.298 162.018 113.943 161.744 113.246 161.744C112.947 161.744 112.706 161.809 112.523 161.939C112.348 162.063 112.263 162.229 112.27 162.438C112.296 162.776 112.569 163.01 113.09 163.141L114.672 163.561C115.102 163.678 115.476 163.834 115.795 164.029C116.12 164.218 116.368 164.41 116.537 164.605C116.713 164.801 116.853 165.012 116.957 165.24C117.068 165.468 117.136 165.663 117.162 165.826C117.195 165.982 117.211 166.132 117.211 166.275C117.211 166.751 117.094 167.18 116.859 167.564C116.625 167.949 116.312 168.258 115.922 168.492C115.531 168.72 115.098 168.893 114.623 169.01C114.154 169.133 113.669 169.195 113.168 169.195C112.784 169.195 112.406 169.15 112.035 169.059C111.664 168.974 111.312 168.844 110.98 168.668C110.648 168.486 110.355 168.271 110.102 168.023C109.848 167.77 109.646 167.467 109.496 167.115C109.353 166.764 109.278 166.386 109.271 165.982Z" fill="#E9672B"/>
</svg>
