<svg width="120" height="175" viewBox="0 0 120 175" fill="none" xmlns="http://www.w3.org/2000/svg">
<circle cx="60" cy="60" r="60" fill="#FBF8F5"/>
<path d="M90 60H40V58C40 57.7348 39.8946 57.4804 39.7071 57.2929C39.5196 57.1054 39.2652 57 39 57H38V54H40V55C40 55.2652 40.1054 55.5196 40.2929 55.7071C40.4804 55.8946 40.7348 56 41 56C41.2652 56 41.5196 55.8946 41.7071 55.7071C41.8946 55.5196 42 55.2652 42 55V51C42 50.7348 41.8946 50.4804 41.7071 50.2929C41.5196 50.1054 41.2652 50 41 50C40.7348 50 40.4804 50.1054 40.2929 50.2929C40.1054 50.4804 40 50.7348 40 51V52H38V40C38.001 38.9394 38.4227 37.9226 39.1727 37.1727C39.9226 36.4227 40.9394 36.001 42 36H46C47.0606 36.001 48.0774 36.4227 48.8273 37.1727C49.5773 37.9226 49.999 38.9394 50 40V40.085C48.6028 40.3229 47.3347 41.047 46.4198 42.1294C45.5049 43.2118 45.002 44.5827 45 46C45 46.2652 45.1054 46.5196 45.2929 46.7071C45.4804 46.8946 45.7348 47 46 47H56C56.2652 47 56.5196 46.8946 56.7071 46.7071C56.8946 46.5196 57 46.2652 57 46C56.998 44.5827 56.4951 43.2118 55.5802 42.1294C54.6653 41.047 53.3972 40.3229 52 40.085V40C51.9983 38.4092 51.3656 36.8841 50.2408 35.7592C49.1159 34.6344 47.5908 34.0017 46 34H42C40.4092 34.0017 38.8841 34.6344 37.7592 35.7592C36.6344 36.8841 36.0017 38.4092 36 40V57H35C34.7348 57 34.4804 57.1054 34.2929 57.2929C34.1054 57.4804 34 57.7348 34 58V60H30C29.7348 60 29.4804 60.1054 29.2929 60.2929C29.1054 60.4804 29 60.7348 29 61V64C29 64.2652 29.1054 64.5196 29.2929 64.7071C29.4804 64.8946 29.7348 65 30 65H33V77C33.002 78.4173 33.5049 79.7882 34.4198 80.8706C35.3347 81.953 36.6028 82.6771 38 82.915V85C38 85.2652 38.1054 85.5196 38.2929 85.7071C38.4804 85.8946 38.7348 86 39 86C39.2652 86 39.5196 85.8946 39.7071 85.7071C39.8946 85.5196 40 85.2652 40 85V83H80V85C80 85.2652 80.1054 85.5196 80.2929 85.7071C80.4804 85.8946 80.7348 86 81 86C81.2652 86 81.5196 85.8946 81.7071 85.7071C81.8946 85.5196 82 85.2652 82 85V82.915C83.3972 82.6771 84.6653 81.953 85.5802 80.8706C86.4951 79.7882 86.998 78.4173 87 77V65H90C90.2652 65 90.5196 64.8946 90.7071 64.7071C90.8946 64.5196 91 64.2652 91 64V61C91 60.7348 90.8946 60.4804 90.7071 60.2929C90.5196 60.1054 90.2652 60 90 60ZM51 42C51.8866 42.0011 52.7478 42.2961 53.4488 42.839C54.1497 43.3819 54.6509 44.1419 54.8738 45H47.1262C47.3491 44.1419 47.8503 43.3819 48.5512 42.839C49.2522 42.2961 50.1134 42.0011 51 42ZM36 59H38V60H36V59ZM85 77C84.999 78.0606 84.5773 79.0774 83.8273 79.8273C83.0774 80.5773 82.0606 80.999 81 81H39C37.9394 80.999 36.9226 80.5773 36.1727 79.8273C35.4227 79.0774 35.001 78.0606 35 77V65H85V77ZM89 63H31V62H89V63Z" fill="#E9672B"/>
<path d="M38 69H46C46.2652 69 46.5196 68.8946 46.7071 68.7071C46.8946 68.5196 47 68.2652 47 68C47 67.7348 46.8946 67.4804 46.7071 67.2929C46.5196 67.1054 46.2652 67 46 67H38C37.7348 67 37.4804 67.1054 37.2929 67.2929C37.1054 67.4804 37 67.7348 37 68C37 68.2652 37.1054 68.5196 37.2929 68.7071C37.4804 68.8946 37.7348 69 38 69Z" fill="#E9672B"/>
<path d="M49 69H50C50.2652 69 50.5196 68.8946 50.7071 68.7071C50.8946 68.5196 51 68.2652 51 68C51 67.7348 50.8946 67.4804 50.7071 67.2929C50.5196 67.1054 50.2652 67 50 67H49C48.7348 67 48.4804 67.1054 48.2929 67.2929C48.1054 67.4804 48 67.7348 48 68C48 68.2652 48.1054 68.5196 48.2929 68.7071C48.4804 68.8946 48.7348 69 49 69Z" fill="#E9672B"/>
<path d="M12.0691 169V155.221H17.5867C18.8302 155.221 19.8198 155.566 20.5555 156.256C21.2977 156.946 21.6688 157.88 21.6688 159.059C21.6688 159.573 21.5158 160.071 21.2098 160.553C20.9103 161.028 20.435 161.389 19.784 161.637C20.6238 161.852 21.2684 162.271 21.7176 162.896C22.1668 163.515 22.3914 164.143 22.3914 164.781C22.3914 165.96 21.9878 166.959 21.1805 167.779C20.3797 168.593 19.3152 169 17.9871 169H12.0691ZM15.0086 166.422H17.8309C18.2931 166.422 18.6544 166.253 18.9148 165.914C19.1753 165.569 19.3055 165.172 19.3055 164.723C19.3055 164.293 19.1688 163.912 18.8953 163.58C18.6284 163.248 18.254 163.082 17.7723 163.082H15.0086V166.422ZM15.0086 160.66H17.3035C17.6811 160.66 17.9904 160.527 18.2313 160.26C18.4721 159.993 18.5926 159.654 18.5926 159.244C18.5926 158.801 18.4786 158.45 18.2508 158.189C18.0294 157.929 17.7072 157.799 17.284 157.799H15.0086V160.66ZM24.7051 164.322C24.7051 163.6 24.8385 162.929 25.1055 162.311C25.3789 161.686 25.7402 161.171 26.1895 160.768C26.6387 160.357 27.1465 160.038 27.7129 159.811C28.2793 159.576 28.862 159.459 29.4609 159.459C29.7148 159.459 29.985 159.488 30.2715 159.547C30.5645 159.599 30.8997 159.726 31.2773 159.928C31.6615 160.123 31.9642 160.38 32.1855 160.699V159.664H34.9395V169H32.1855V167.936C31.9186 168.339 31.5085 168.648 30.9551 168.863C30.4082 169.072 29.9102 169.176 29.4609 169.176C28.6536 169.176 27.8919 168.984 27.1758 168.6C26.4596 168.215 25.8672 167.649 25.3984 166.9C24.9362 166.145 24.7051 165.286 24.7051 164.322ZM28.2891 162.73C27.8203 163.147 27.5859 163.678 27.5859 164.322C27.5859 164.967 27.8203 165.497 28.2891 165.914C28.7643 166.331 29.3079 166.539 29.9199 166.539C30.5254 166.539 31.0527 166.337 31.502 165.934C31.9577 165.523 32.1855 164.986 32.1855 164.322C32.1855 163.652 31.9577 163.115 31.502 162.711C31.0527 162.301 30.5254 162.096 29.9199 162.096C29.3079 162.096 28.7643 162.307 28.2891 162.73ZM37.4875 161.861V159.664H39.1867V156.08H41.9504V159.664H43.9133V161.861H41.9504V169H39.1867V161.861H37.4875ZM46.4125 169V154.576H49.1957V161.119C49.3129 160.755 49.5277 160.442 49.8402 160.182C50.1592 159.921 50.488 159.736 50.8266 159.625C51.1651 159.514 51.4939 159.459 51.8129 159.459C53.0303 159.459 53.9581 159.846 54.5961 160.621C55.2341 161.396 55.5531 162.496 55.5531 163.922V169H52.7699V164.02C52.7699 163.447 52.5974 162.994 52.2523 162.662C51.9073 162.33 51.5069 162.164 51.0512 162.164C50.5434 162.164 50.1072 162.317 49.7426 162.623C49.378 162.929 49.1957 163.408 49.1957 164.059V169H46.4125ZM58.7945 169V159.664H61.5777V161.92C61.7991 161.113 62.1604 160.501 62.6617 160.084C63.163 159.667 63.6806 159.459 64.2145 159.459C64.8395 159.459 65.3733 159.573 65.816 159.801L65.318 162.301C64.9339 162.112 64.4586 162.018 63.8922 162.018C63.0979 162.018 62.512 162.327 62.1344 162.945C61.7633 163.564 61.5777 164.495 61.5777 165.738V169H58.7945ZM67.3387 164.303C67.3387 163.352 67.5568 162.506 67.993 161.764C68.4357 161.015 69.0216 160.445 69.7508 160.055C70.4865 159.658 71.2938 159.459 72.1727 159.459C73.0516 159.459 73.8589 159.658 74.5945 160.055C75.3302 160.445 75.9194 161.015 76.3621 161.764C76.8113 162.506 77.0359 163.352 77.0359 164.303C77.0359 165.253 76.8113 166.103 76.3621 166.852C75.9194 167.6 75.3302 168.173 74.5945 168.57C73.8589 168.961 73.0516 169.156 72.1727 169.156C71.2938 169.156 70.4865 168.961 69.7508 168.57C69.0216 168.173 68.4357 167.604 67.993 166.861C67.5568 166.113 67.3387 165.26 67.3387 164.303ZM70.073 164.303C70.073 164.934 70.2749 165.449 70.6785 165.846C71.0887 166.243 71.5867 166.441 72.1727 166.441C72.7716 166.441 73.2729 166.246 73.6766 165.855C74.0867 165.458 74.2918 164.941 74.2918 164.303C74.2918 163.684 74.0867 163.176 73.6766 162.779C73.2664 162.382 72.7651 162.184 72.1727 162.184C71.5867 162.184 71.0887 162.382 70.6785 162.779C70.2749 163.176 70.073 163.684 70.073 164.303ZM79.2715 164.303C79.2715 163.352 79.4896 162.506 79.9258 161.764C80.3685 161.015 80.9544 160.445 81.6836 160.055C82.4193 159.658 83.2266 159.459 84.1055 159.459C84.9844 159.459 85.7917 159.658 86.5273 160.055C87.263 160.445 87.8522 161.015 88.2949 161.764C88.7441 162.506 88.9688 163.352 88.9688 164.303C88.9688 165.253 88.7441 166.103 88.2949 166.852C87.8522 167.6 87.263 168.173 86.5273 168.57C85.7917 168.961 84.9844 169.156 84.1055 169.156C83.2266 169.156 82.4193 168.961 81.6836 168.57C80.9544 168.173 80.3685 167.604 79.9258 166.861C79.4896 166.113 79.2715 165.26 79.2715 164.303ZM82.0059 164.303C82.0059 164.934 82.2077 165.449 82.6113 165.846C83.0215 166.243 83.5195 166.441 84.1055 166.441C84.7044 166.441 85.2057 166.246 85.6094 165.855C86.0195 165.458 86.2246 164.941 86.2246 164.303C86.2246 163.684 86.0195 163.176 85.6094 162.779C85.1992 162.382 84.6979 162.184 84.1055 162.184C83.5195 162.184 83.0215 162.382 82.6113 162.779C82.2077 163.176 82.0059 163.684 82.0059 164.303ZM91.7609 169V159.664H94.5441V161.021C94.759 160.546 95.091 160.172 95.5402 159.898C95.9895 159.618 96.4712 159.479 96.9855 159.479C98.4634 159.479 99.4628 160.025 99.9836 161.119C100.661 160.012 101.595 159.459 102.786 159.459C103.919 159.459 104.801 159.82 105.433 160.543C106.064 161.259 106.38 162.311 106.38 163.697V169H103.626V164.02C103.626 163.434 103.476 162.978 103.177 162.652C102.884 162.327 102.519 162.164 102.083 162.164C101.608 162.164 101.221 162.32 100.921 162.633C100.628 162.939 100.482 163.414 100.482 164.059V169H97.6984V163.961C97.6919 163.395 97.5389 162.955 97.2395 162.643C96.9465 162.324 96.5884 162.164 96.1652 162.164C95.6965 162.164 95.3091 162.317 95.0031 162.623C94.6971 162.923 94.5441 163.401 94.5441 164.059V169H91.7609Z" fill="#E9672B"/>
</svg>
