<svg width="120" height="175" viewBox="0 0 120 175" fill="none" xmlns="http://www.w3.org/2000/svg">
<circle cx="60" cy="60" r="60" fill="#FBF8F5"/>
<path d="M90 71H89V63C88.9986 61.9396 88.5767 60.923 87.8269 60.1731C87.077 59.4233 86.0604 59.0014 85 59V42C84.9986 40.9396 84.5767 39.923 83.8269 39.1731C83.077 38.4233 82.0604 38.0014 81 38H39C37.9396 38.0014 36.923 38.4233 36.1731 39.1731C35.4233 39.923 35.0014 40.9396 35 42V59C33.9396 59.0014 32.923 59.4233 32.1731 60.1731C31.4233 60.923 31.0014 61.9396 31 63V71H30C29.7348 71 29.4804 71.1054 29.2929 71.2929C29.1054 71.4804 29 71.7348 29 72V76C29 76.2652 29.1054 76.5196 29.2929 76.7071C29.4804 76.8946 29.7348 77 30 77H31V81C31 81.2652 31.1054 81.5196 31.2929 81.7071C31.4804 81.8946 31.7348 82 32 82H35C35.2311 82.0001 35.4551 81.9201 35.6338 81.7735C35.8125 81.6269 35.9349 81.4229 35.98 81.1963L36.82 77H83.18L84.02 81.1963C84.0651 81.4229 84.1875 81.6269 84.3662 81.7735C84.5449 81.9201 84.7689 82.0001 85 82H88C88.2652 82 88.5196 81.8946 88.7071 81.7071C88.8946 81.5196 89 81.2652 89 81V77H90C90.2652 77 90.5196 76.8946 90.7071 76.7071C90.8946 76.5196 91 76.2652 91 76V72C91 71.7348 90.8946 71.4804 90.7071 71.2929C90.5196 71.1054 90.2652 71 90 71ZM37 42C37.0007 41.4698 37.2116 40.9615 37.5866 40.5866C37.9615 40.2116 38.4698 40.0007 39 40H81C81.5302 40.0007 82.0385 40.2116 82.4134 40.5866C82.7884 40.9615 82.9993 41.4698 83 42V59H81V55C80.9986 53.9396 80.5767 52.923 79.8269 52.1731C79.077 51.4233 78.0604 51.0014 77 51H65C63.9396 51.0014 62.923 51.4233 62.1731 52.1731C61.4233 52.923 61.0014 53.9396 61 55V59H59V55C58.9986 53.9396 58.5767 52.923 57.8269 52.1731C57.077 51.4233 56.0604 51.0014 55 51H43C41.9396 51.0014 40.923 51.4233 40.1731 52.1731C39.4233 52.923 39.0014 53.9396 39 55V59H37V42ZM79 55V59H63V55C63.0007 54.4698 63.2116 53.9615 63.5866 53.5866C63.9615 53.2116 64.4698 53.0007 65 53H77C77.5302 53.0007 78.0385 53.2116 78.4134 53.5866C78.7884 53.9615 78.9993 54.4698 79 55ZM57 55V59H41V55C41.0007 54.4698 41.2116 53.9615 41.5866 53.5866C41.9615 53.2116 42.4698 53.0007 43 53H55C55.5302 53.0007 56.0385 53.2116 56.4134 53.5866C56.7884 53.9615 56.9993 54.4698 57 55ZM33 63C33.0007 62.4698 33.2116 61.9615 33.5866 61.5866C33.9615 61.2116 34.4698 61.0007 35 61H85C85.5302 61.0007 86.0385 61.2116 86.4134 61.5866C86.7884 61.9615 86.9993 62.4698 87 63V71H33V63ZM34.18 80H33V77H34.78L34.18 80ZM87 80H85.82L85.22 77H87V80ZM89 75H31V73H89V75Z" fill="#E9672B"/>
<path d="M17.0219 169V155.221H22.5395C23.7829 155.221 24.7725 155.566 25.5082 156.256C26.2504 156.946 26.6215 157.88 26.6215 159.059C26.6215 159.573 26.4685 160.071 26.1625 160.553C25.863 161.028 25.3878 161.389 24.7367 161.637C25.5766 161.852 26.2211 162.271 26.6703 162.896C27.1195 163.515 27.3441 164.143 27.3441 164.781C27.3441 165.96 26.9405 166.959 26.1332 167.779C25.3324 168.593 24.268 169 22.9398 169H17.0219ZM19.9613 166.422H22.7836C23.2458 166.422 23.6072 166.253 23.8676 165.914C24.128 165.569 24.2582 165.172 24.2582 164.723C24.2582 164.293 24.1215 163.912 23.848 163.58C23.5811 163.248 23.2068 163.082 22.725 163.082H19.9613V166.422ZM19.9613 160.66H22.2562C22.6339 160.66 22.9431 160.527 23.184 160.26C23.4249 159.993 23.5453 159.654 23.5453 159.244C23.5453 158.801 23.4314 158.45 23.2035 158.189C22.9822 157.929 22.6599 157.799 22.2367 157.799H19.9613V160.66ZM30.3121 166.871C29.8759 166.116 29.6578 165.26 29.6578 164.303C29.6578 163.346 29.8759 162.496 30.3121 161.754C30.7548 161.012 31.344 160.445 32.0797 160.055C32.8219 159.658 33.6389 159.459 34.5309 159.459C35.1884 159.459 35.8102 159.579 36.3961 159.82C36.982 160.061 37.4898 160.393 37.9195 160.816C38.3492 161.24 38.6878 161.76 38.9352 162.379C39.1891 162.991 39.316 163.658 39.316 164.381C39.316 164.628 39.303 164.915 39.277 165.24H32.4312C32.4964 165.742 32.7568 166.129 33.2125 166.402C33.6747 166.669 34.1826 166.803 34.7359 166.803C35.1396 166.803 35.5237 166.728 35.8883 166.578C36.2594 166.428 36.5556 166.21 36.777 165.924L38.7984 167.301C38.3622 167.952 37.76 168.43 36.9918 168.736C36.2236 169.042 35.4033 169.195 34.5309 169.195C33.6389 169.195 32.8219 168.997 32.0797 168.6C31.344 168.196 30.7548 167.62 30.3121 166.871ZM32.4703 163.502H36.5133C36.4482 162.975 36.2171 162.577 35.8199 162.311C35.4293 162.037 35.0061 161.9 34.5504 161.9C34.0947 161.9 33.6617 162.034 33.2516 162.301C32.8414 162.561 32.581 162.962 32.4703 163.502ZM41.4734 164.361C41.4734 163.632 41.5971 162.958 41.8445 162.34C42.0919 161.715 42.4207 161.197 42.8309 160.787C43.2475 160.37 43.7293 160.045 44.2762 159.811C44.823 159.576 45.396 159.459 45.9949 159.459C46.5939 159.459 47.144 159.579 47.6453 159.82C48.1466 160.055 48.5079 160.38 48.7293 160.797V154.576H51.493V169H48.7293V167.838C48.5014 168.261 48.1368 168.593 47.6355 168.834C47.1342 169.075 46.5874 169.195 45.9949 169.195C45.396 169.195 44.823 169.081 44.2762 168.854C43.7293 168.619 43.2475 168.297 42.8309 167.887C42.4207 167.477 42.0919 166.965 41.8445 166.354C41.5971 165.742 41.4734 165.077 41.4734 164.361ZM44.3543 164.303C44.3543 164.973 44.5626 165.517 44.9793 165.934C45.396 166.35 45.907 166.559 46.5125 166.559C47.1049 166.559 47.6128 166.347 48.0359 165.924C48.4591 165.501 48.6707 164.96 48.6707 164.303C48.6707 163.632 48.4591 163.095 48.0359 162.691C47.6193 162.281 47.1115 162.076 46.5125 162.076C45.907 162.076 45.396 162.285 44.9793 162.701C44.5626 163.111 44.3543 163.645 44.3543 164.303ZM54.8418 169V159.664H57.625V161.92C57.8464 161.113 58.2077 160.501 58.709 160.084C59.2103 159.667 59.7279 159.459 60.2617 159.459C60.8867 159.459 61.4206 159.573 61.8633 159.801L61.3652 162.301C60.9811 162.112 60.5059 162.018 59.9395 162.018C59.1452 162.018 58.5592 162.327 58.1816 162.945C57.8105 163.564 57.625 164.495 57.625 165.738V169H54.8418ZM63.3859 164.303C63.3859 163.352 63.604 162.506 64.0402 161.764C64.4829 161.015 65.0689 160.445 65.798 160.055C66.5337 159.658 67.341 159.459 68.2199 159.459C69.0988 159.459 69.9061 159.658 70.6418 160.055C71.3775 160.445 71.9667 161.015 72.4094 161.764C72.8586 162.506 73.0832 163.352 73.0832 164.303C73.0832 165.253 72.8586 166.103 72.4094 166.852C71.9667 167.6 71.3775 168.173 70.6418 168.57C69.9061 168.961 69.0988 169.156 68.2199 169.156C67.341 169.156 66.5337 168.961 65.798 168.57C65.0689 168.173 64.4829 167.604 64.0402 166.861C63.604 166.113 63.3859 165.26 63.3859 164.303ZM66.1203 164.303C66.1203 164.934 66.3221 165.449 66.7258 165.846C67.1359 166.243 67.634 166.441 68.2199 166.441C68.8189 166.441 69.3202 166.246 69.7238 165.855C70.134 165.458 70.3391 164.941 70.3391 164.303C70.3391 163.684 70.134 163.176 69.7238 162.779C69.3137 162.382 68.8124 162.184 68.2199 162.184C67.634 162.184 67.1359 162.382 66.7258 162.779C66.3221 163.176 66.1203 163.684 66.1203 164.303ZM75.3187 164.303C75.3187 163.352 75.5368 162.506 75.973 161.764C76.4158 161.015 77.0017 160.445 77.7309 160.055C78.4665 159.658 79.2738 159.459 80.1527 159.459C81.0316 159.459 81.8389 159.658 82.5746 160.055C83.3103 160.445 83.8995 161.015 84.3422 161.764C84.7914 162.506 85.016 163.352 85.016 164.303C85.016 165.253 84.7914 166.103 84.3422 166.852C83.8995 167.6 83.3103 168.173 82.5746 168.57C81.8389 168.961 81.0316 169.156 80.1527 169.156C79.2738 169.156 78.4665 168.961 77.7309 168.57C77.0017 168.173 76.4158 167.604 75.973 166.861C75.5368 166.113 75.3187 165.26 75.3187 164.303ZM78.0531 164.303C78.0531 164.934 78.2549 165.449 78.6586 165.846C79.0687 166.243 79.5668 166.441 80.1527 166.441C80.7517 166.441 81.253 166.246 81.6566 165.855C82.0668 165.458 82.2719 164.941 82.2719 164.303C82.2719 163.684 82.0668 163.176 81.6566 162.779C81.2465 162.382 80.7452 162.184 80.1527 162.184C79.5668 162.184 79.0687 162.382 78.6586 162.779C78.2549 163.176 78.0531 163.684 78.0531 164.303ZM87.8082 169V159.664H90.5914V161.021C90.8063 160.546 91.1383 160.172 91.5875 159.898C92.0367 159.618 92.5185 159.479 93.0328 159.479C94.5107 159.479 95.51 160.025 96.0309 161.119C96.7079 160.012 97.6422 159.459 98.8336 159.459C99.9664 159.459 100.849 159.82 101.48 160.543C102.112 161.259 102.427 162.311 102.427 163.697V169H99.6734V164.02C99.6734 163.434 99.5237 162.978 99.2242 162.652C98.9313 162.327 98.5667 162.164 98.1305 162.164C97.6552 162.164 97.2678 162.32 96.9684 162.633C96.6754 162.939 96.5289 163.414 96.5289 164.059V169H93.7457V163.961C93.7392 163.395 93.5862 162.955 93.2867 162.643C92.9938 162.324 92.6357 162.164 92.2125 162.164C91.7438 162.164 91.3564 162.317 91.0504 162.623C90.7444 162.923 90.5914 163.401 90.5914 164.059V169H87.8082Z" fill="#E9672B"/>
</svg>
