<svg width="120" height="175" viewBox="0 0 120 175" fill="none" xmlns="http://www.w3.org/2000/svg">
<circle cx="60" cy="60" r="60" fill="#FBF8F5"/>
<g clip-path="url(#clip0_688_28)">
<path d="M88.8011 65.3342H85.601V54.6681C85.5976 51.7238 83.212 49.3382 80.2677 49.3347H63.2019C60.2576 49.3382 57.872 51.7238 57.8685 54.6681V65.3342H54.6684C52.9024 65.3362 51.4708 66.7678 51.4688 68.5343V79.2005C51.4771 82.0075 53.6626 84.3258 56.4643 84.4996L54.9306 89.8666H44.9612C44.451 87.3857 42.2689 85.6036 39.7358 85.6002H37.6026V36.4924C37.6041 33.1561 40.1831 30.3881 43.5111 30.1518C46.8391 29.9155 49.7838 32.2909 50.257 35.5935L50.2755 35.7229C48.8991 36.2898 48.0998 37.735 48.3518 39.2018L48.6428 40.9239L45.7908 45.8217C45.4075 46.4803 45.4046 47.2933 45.7825 47.9549C46.1609 48.6165 46.8635 49.0262 47.6257 49.0296C47.7478 49.0296 47.8698 49.0193 47.99 48.9988L58.223 47.2694C59.0389 47.1312 59.7015 46.5336 59.9232 45.7362C60.1443 44.9389 59.8846 44.0854 59.2562 43.5468L54.9531 39.858L54.6621 38.1359C54.4556 36.9352 53.5835 35.9568 52.4146 35.6135L52.3687 35.2917C51.7384 30.8798 47.8049 27.7056 43.3597 28.0215C38.9146 28.3374 35.4694 32.036 35.4694 36.4924V85.6002H33.3361V84.5338C33.3361 83.9445 32.8586 83.4669 32.2693 83.4669C31.6804 83.4669 31.2029 83.9445 31.2029 84.5338V86.0523C29.262 86.9004 28.0067 88.8154 28.0028 90.9335C28.0028 91.5223 28.4803 91.9999 29.0697 91.9999H90.9344C91.5232 91.9999 92.0007 91.5223 92.0007 90.9335C92.0007 90.3441 91.5232 89.8666 90.9344 89.8666H88.5389L87.0053 84.4996C89.807 84.3258 91.9924 82.0075 92.0007 79.2005V68.5343C91.9988 66.7678 90.5672 65.3362 88.8011 65.3342ZM57.8676 45.1659L47.6345 46.8959L50.4293 42.0962L53.6514 41.5518L57.8754 45.164L57.8676 45.1659ZM52.7369 39.5426L50.6334 39.898L50.4552 38.8463C50.358 38.2658 50.7487 37.716 51.3292 37.6169C51.3883 37.6071 51.4478 37.6022 51.5079 37.6022C52.0279 37.6032 52.4717 37.9782 52.5596 38.4909L52.7369 39.5426ZM63.2019 51.468H80.2677C82.0343 51.4699 83.4659 52.9015 83.4678 54.6681V65.531C82.1929 65.9797 81.3385 67.1823 81.3346 68.5343V70.6949C80.4166 69.9893 79.2922 69.6046 78.1345 69.6007H74.3099L76.7556 67.155C77.1594 66.7365 77.154 66.071 76.7424 65.6599C76.3308 65.2483 75.6658 65.2424 75.2474 65.6467L72.8016 68.0924V63.201C72.8016 62.6117 72.3236 62.1341 71.7348 62.1341C71.1459 62.1341 70.6679 62.6117 70.6679 63.201V68.0924L68.2222 65.6467C67.8038 65.2424 67.1387 65.2483 66.7271 65.6599C66.3155 66.071 66.3102 66.7365 66.714 67.155L69.1597 69.6007H65.3351C64.1774 69.6046 63.0529 69.9893 62.135 70.6949V68.5343C62.1311 67.1823 61.2766 65.9797 60.0018 65.531V54.6681C60.0037 52.9015 61.4353 51.4699 63.2019 51.468ZM78.1345 71.7339C79.901 71.7359 81.3326 73.1675 81.3346 74.934V76.0004H62.135V74.934C62.137 73.1675 63.5685 71.7359 65.3351 71.7339H78.1345ZM79.6491 84.5338L82.6968 89.8666H60.7732L63.8205 84.5338H79.6491ZM81.3346 82.4001H62.135V78.1336H81.3346V82.4001ZM53.6021 79.2005V68.5343C53.6026 67.9455 54.0801 67.4684 54.6684 67.4675H58.9354C59.5238 67.4684 60.0013 67.9455 60.0018 68.5343V82.4001H56.8022C55.0356 82.3981 53.604 80.967 53.6021 79.2005ZM30.3191 89.8666C30.7722 88.5893 31.9802 87.7349 33.3361 87.7334H39.7358C41.0912 87.7349 42.2997 88.5893 42.7528 89.8666H30.3191ZM57.1493 89.8666L58.6732 84.5338H61.364L58.3168 89.8666H57.1493ZM85.1528 89.8666L82.1055 84.5338H84.7964L86.3202 89.8666H85.1528ZM89.8675 79.2005C89.8655 80.967 88.4339 82.3981 86.6674 82.4001H83.4678V68.5343C83.4683 67.9455 83.9458 67.4684 84.5342 67.4675H88.8011C89.3895 67.4684 89.8665 67.9455 89.8675 68.5343V79.2005Z" fill="#E9672B"/>
</g>
<path d="M2.97852 169V155.221H5.91797V166.422H11.0742V169H2.97852ZM13.798 157.359C13.4595 157.04 13.2902 156.653 13.2902 156.197C13.2902 155.742 13.4595 155.357 13.798 155.045C14.1431 154.732 14.5533 154.576 15.0285 154.576C15.4973 154.576 15.8977 154.732 16.2297 155.045C16.5617 155.357 16.7277 155.742 16.7277 156.197C16.7277 156.653 16.5617 157.04 16.2297 157.359C15.8977 157.678 15.4973 157.838 15.0285 157.838C14.5533 157.838 14.1431 157.678 13.798 157.359ZM13.6516 169V159.664H16.4152V169H13.6516ZM18.5434 159.664H21.5023L23.6801 165.465L25.848 159.664H28.8266L24.8617 169H22.4887L18.5434 159.664ZM31.1012 157.359C30.7626 157.04 30.5934 156.653 30.5934 156.197C30.5934 155.742 30.7626 155.357 31.1012 155.045C31.4462 154.732 31.8564 154.576 32.3316 154.576C32.8004 154.576 33.2008 154.732 33.5328 155.045C33.8648 155.357 34.0309 155.742 34.0309 156.197C34.0309 156.653 33.8648 157.04 33.5328 157.359C33.2008 157.678 32.8004 157.838 32.3316 157.838C31.8564 157.838 31.4462 157.678 31.1012 157.359ZM30.9547 169V159.664H33.7184V169H30.9547ZM37.0672 169V159.664H39.8504V161.021C40.0978 160.553 40.4689 160.175 40.9637 159.889C41.465 159.602 41.9923 159.459 42.5457 159.459C43.6199 159.459 44.4565 159.794 45.0555 160.465C45.6609 161.135 45.9637 162.122 45.9637 163.424V169H43.1902V164.02C43.1902 163.421 43.0405 162.962 42.741 162.643C42.448 162.324 42.0574 162.164 41.5691 162.164C40.4233 162.164 39.8504 162.796 39.8504 164.059V169H37.0672ZM48.6777 164.361C48.6777 163.632 48.8079 162.958 49.0684 162.34C49.3288 161.715 49.6738 161.197 50.1035 160.787C50.5397 160.37 51.0378 160.045 51.5977 159.811C52.1576 159.576 52.737 159.459 53.3359 159.459C53.9349 159.459 54.4948 159.583 55.0156 159.83C55.543 160.071 55.9173 160.4 56.1387 160.816V159.664H58.834V167.701C58.834 169.68 58.375 171.168 57.457 172.164C56.5456 173.16 55.2435 173.658 53.5508 173.658C52.5286 173.658 51.6042 173.395 50.7773 172.867C49.957 172.34 49.3483 171.637 48.9512 170.758C49.1855 170.641 49.5599 170.455 50.0742 170.201C50.5885 169.954 50.9629 169.775 51.1973 169.664C51.3535 170.087 51.6628 170.442 52.125 170.729C52.5938 171.015 53.069 171.158 53.5508 171.158C55.4128 171.158 56.2754 170.051 56.1387 167.838C55.9238 168.255 55.5527 168.587 55.0254 168.834C54.498 169.075 53.9349 169.195 53.3359 169.195C52.5286 169.195 51.7734 169 51.0703 168.609C50.3672 168.219 49.791 167.649 49.3418 166.9C48.8991 166.152 48.6777 165.305 48.6777 164.361ZM51.5781 164.303C51.5781 164.98 51.7962 165.53 52.2324 165.953C52.6751 166.37 53.2025 166.578 53.8145 166.578C54.4069 166.578 54.931 166.363 55.3867 165.934C55.8424 165.504 56.0703 164.96 56.0703 164.303C56.0703 163.632 55.8457 163.098 55.3965 162.701C54.9538 162.298 54.4264 162.096 53.8145 162.096C53.2025 162.096 52.6751 162.304 52.2324 162.721C51.7962 163.131 51.5781 163.658 51.5781 164.303ZM67.8852 169V159.664H70.6684V161.92C70.8897 161.113 71.251 160.501 71.7523 160.084C72.2536 159.667 72.7712 159.459 73.3051 159.459C73.9301 159.459 74.4639 159.573 74.9066 159.801L74.4086 162.301C74.0245 162.112 73.5492 162.018 72.9828 162.018C72.1885 162.018 71.6026 162.327 71.225 162.945C70.8539 163.564 70.6684 164.495 70.6684 165.738V169H67.8852ZM76.4293 164.303C76.4293 163.352 76.6474 162.506 77.0836 161.764C77.5263 161.015 78.1122 160.445 78.8414 160.055C79.5771 159.658 80.3844 159.459 81.2633 159.459C82.1422 159.459 82.9495 159.658 83.6852 160.055C84.4208 160.445 85.01 161.015 85.4527 161.764C85.902 162.506 86.1266 163.352 86.1266 164.303C86.1266 165.253 85.902 166.103 85.4527 166.852C85.01 167.6 84.4208 168.173 83.6852 168.57C82.9495 168.961 82.1422 169.156 81.2633 169.156C80.3844 169.156 79.5771 168.961 78.8414 168.57C78.1122 168.173 77.5263 167.604 77.0836 166.861C76.6474 166.113 76.4293 165.26 76.4293 164.303ZM79.1637 164.303C79.1637 164.934 79.3655 165.449 79.7691 165.846C80.1793 166.243 80.6773 166.441 81.2633 166.441C81.8622 166.441 82.3635 166.246 82.7672 165.855C83.1773 165.458 83.3824 164.941 83.3824 164.303C83.3824 163.684 83.1773 163.176 82.7672 162.779C82.357 162.382 81.8557 162.184 81.2633 162.184C80.6773 162.184 80.1793 162.382 79.7691 162.779C79.3655 163.176 79.1637 163.684 79.1637 164.303ZM88.3621 164.303C88.3621 163.352 88.5802 162.506 89.0164 161.764C89.4591 161.015 90.045 160.445 90.7742 160.055C91.5099 159.658 92.3172 159.459 93.1961 159.459C94.075 159.459 94.8823 159.658 95.618 160.055C96.3536 160.445 96.9428 161.015 97.3855 161.764C97.8348 162.506 98.0594 163.352 98.0594 164.303C98.0594 165.253 97.8348 166.103 97.3855 166.852C96.9428 167.6 96.3536 168.173 95.618 168.57C94.8823 168.961 94.075 169.156 93.1961 169.156C92.3172 169.156 91.5099 168.961 90.7742 168.57C90.045 168.173 89.4591 167.604 89.0164 166.861C88.5802 166.113 88.3621 165.26 88.3621 164.303ZM91.0965 164.303C91.0965 164.934 91.2983 165.449 91.702 165.846C92.1121 166.243 92.6102 166.441 93.1961 166.441C93.795 166.441 94.2964 166.246 94.7 165.855C95.1102 165.458 95.3152 164.941 95.3152 164.303C95.3152 163.684 95.1102 163.176 94.7 162.779C94.2898 162.382 93.7885 162.184 93.1961 162.184C92.6102 162.184 92.1121 162.382 91.702 162.779C91.2983 163.176 91.0965 163.684 91.0965 164.303ZM100.852 169V159.664H103.635V161.021C103.85 160.546 104.182 160.172 104.631 159.898C105.08 159.618 105.562 159.479 106.076 159.479C107.554 159.479 108.553 160.025 109.074 161.119C109.751 160.012 110.686 159.459 111.877 159.459C113.01 159.459 113.892 159.82 114.523 160.543C115.155 161.259 115.471 162.311 115.471 163.697V169H112.717V164.02C112.717 163.434 112.567 162.978 112.268 162.652C111.975 162.327 111.61 162.164 111.174 162.164C110.699 162.164 110.311 162.32 110.012 162.633C109.719 162.939 109.572 163.414 109.572 164.059V169H106.789V163.961C106.783 163.395 106.63 162.955 106.33 162.643C106.037 162.324 105.679 162.164 105.256 162.164C104.787 162.164 104.4 162.317 104.094 162.623C103.788 162.923 103.635 163.401 103.635 164.059V169H100.852Z" fill="#E9672B"/>
<defs>
<clipPath id="clip0_688_28">
<rect width="64" height="64" fill="white" transform="translate(28 28)"/>
</clipPath>
</defs>
</svg>
