<svg width="120" height="175" viewBox="0 0 120 175" fill="none" xmlns="http://www.w3.org/2000/svg">
<circle cx="60" cy="60" r="60" fill="#FBF8F5"/>
<g clip-path="url(#clip0_688_40)">
<path d="M47.9104 28.0004C47.3925 28.0004 46.9729 28.4201 46.9729 28.9379V42.0632H44.4948V28.9379C44.4948 28.4201 44.0752 28.0004 43.5573 28.0004C43.0394 28.0004 42.6198 28.4201 42.6198 28.9379V42.0632H40.1969V28.9379C40.1969 28.4201 39.7773 28.0004 39.2594 28.0004C38.7415 28.0004 38.3219 28.4201 38.3219 28.9379V42.0632H35.8389V28.9379C35.8389 28.4201 35.4193 28.0004 34.9014 28.0004C34.3835 28.0004 33.9639 28.4201 33.9639 28.9379V48.2389C33.9639 50.2329 35.0384 52.0879 36.7679 53.08L38.3219 53.9715V59.7212C37.6958 60.4532 37.3434 61.3956 37.3434 62.3651V63.325C37.3434 63.9066 37.5449 64.442 37.8815 64.8651C37.5448 65.2882 37.3434 65.8236 37.3434 66.4052V81.071C37.3434 81.5887 37.763 82.0085 38.2809 82.0085C38.7988 82.0085 39.2184 81.5887 39.2184 81.071V66.4051C39.2184 66.0729 39.4888 65.8025 39.821 65.8025H42.9908C43.323 65.8025 43.5933 66.0729 43.5933 66.4051V87.9074C43.5933 89.1135 42.6119 90.0949 41.4058 90.0949C40.1997 90.0949 39.2183 89.1135 39.2183 87.9074V85.436C39.2183 84.9182 38.7987 84.4985 38.2808 84.4985C37.7629 84.4985 37.3433 84.9182 37.3433 85.436V87.9074C37.3433 90.1474 39.1657 91.9699 41.4058 91.9699C43.6459 91.9699 45.4683 90.1474 45.4683 87.9074V66.4051C45.4683 65.8235 45.2668 65.2881 44.9302 64.865C45.2669 64.4419 45.4683 63.9065 45.4683 63.3249V62.365C45.4683 61.3982 45.1175 60.4579 44.4947 59.7267V53.9711L46.0462 53.0801C47.7742 52.0876 48.8477 50.2331 48.8477 48.2404L48.8479 28.9379C48.8479 28.4201 48.4282 28.0004 47.9104 28.0004V28.0004ZM46.9728 48.2404C46.9728 49.5636 46.2599 50.7951 45.1124 51.4541L43.0903 52.6155C42.7992 52.7827 42.6197 53.0927 42.6197 53.4285V60.0984C42.6197 60.3555 42.7253 60.6012 42.9117 60.7782C43.3513 61.1956 43.5933 61.7591 43.5933 62.365V63.3249C43.5933 63.6571 43.323 63.9275 42.9908 63.9275H39.821C39.4888 63.9275 39.2184 63.6571 39.2184 63.3249V62.365C39.2184 61.7575 39.4617 61.1929 39.9034 60.7751C40.0908 60.598 40.1969 60.3516 40.1969 60.0939V53.4285C40.1969 53.0926 40.0172 52.7825 39.7259 52.6154L37.7009 51.4536C36.5524 50.7949 35.8389 49.563 35.8389 48.239V43.9384H46.9727V48.2404H46.9728Z" fill="#E9672B"/>
<path d="M65.8437 43.7176C65.8437 45.6251 65.4251 47.1102 64.6651 47.8993C63.9401 48.6521 62.8325 48.8102 62.031 48.8102C61.2295 48.8102 60.1218 48.6522 59.3968 47.8992C58.637 47.1102 58.2183 45.6252 58.2183 43.7176C58.2183 43.1998 57.7987 42.7801 57.2808 42.7801C56.763 42.7801 56.3433 43.1998 56.3433 43.7176C56.3433 46.1475 56.9322 48.0432 58.0463 49.1998C59.2283 50.4275 60.8657 50.6851 62.031 50.6851C63.1962 50.6851 64.8335 50.4273 66.0157 49.2C67.1298 48.0431 67.7187 46.1473 67.7187 43.7176C67.7187 43.1998 67.2991 42.7801 66.7812 42.7801C66.2633 42.7801 65.8437 43.1998 65.8437 43.7176Z" fill="#E9672B"/>
<path d="M62.0311 28C59.4831 28 57.0556 29.896 55.1956 33.3386C53.5661 36.3549 52.5933 40.2349 52.5933 43.7176C52.5933 49.0527 54.897 52.7521 58.947 53.992V59.7209C58.321 60.4529 57.9686 61.3952 57.9686 62.3646V63.3245C57.9686 63.906 58.17 64.4414 58.5067 64.8645C58.17 65.2876 57.9685 65.823 57.9685 66.4046V87.9069C57.9685 90.1469 59.791 91.9694 62.0311 91.9694C64.2711 91.9694 66.0935 90.1469 66.0935 87.9069V74.0179C66.0935 73.5001 65.6738 73.0804 65.156 73.0804C64.6381 73.0804 64.2185 73.5001 64.2185 74.0179V87.907C64.2185 89.1131 63.2371 90.0945 62.031 90.0945C60.8248 90.0945 59.8435 89.1131 59.8435 87.907V66.4048C59.8435 66.0725 60.1138 65.8021 60.4461 65.8021H63.6158C63.9481 65.8021 64.2183 66.0725 64.2183 66.4048V69.6953C64.2183 70.213 64.638 70.6328 65.1558 70.6328C65.6737 70.6328 66.0933 70.213 66.0933 69.6953V66.4048C66.0933 65.8232 65.892 65.2879 65.5552 64.8647C65.892 64.4416 66.0935 63.9062 66.0935 63.3246V62.3647C66.0935 61.398 65.7427 60.4577 65.1197 59.7265V53.9906C69.1666 52.7494 71.4685 49.0505 71.4685 43.7177C71.4685 40.235 70.4957 36.355 68.8662 33.3387C67.0063 29.896 64.579 28 62.0311 28V28ZM63.9781 52.3542C63.5495 52.45 63.2448 52.8303 63.2448 53.2693V60.0981C63.2448 60.3553 63.3505 60.601 63.5368 60.778C63.9766 61.1954 64.2186 61.7589 64.2186 62.3647V63.3246C64.2186 63.6569 63.9482 63.9272 63.616 63.9272H60.4462C60.114 63.9272 59.8437 63.6569 59.8437 63.3246V62.3647C59.8437 61.7573 60.087 61.1926 60.5287 60.7747C60.716 60.5976 60.8221 60.3512 60.8221 60.0936V53.2704C60.8221 52.8311 60.5172 52.4508 60.0885 52.3552C56.4643 51.5481 54.4685 48.4806 54.4685 43.7177C54.4685 40.5317 55.357 36.985 56.8455 34.23C58.3405 31.4622 60.2306 29.875 62.0311 29.875C63.8316 29.875 65.7215 31.4622 67.2166 34.2299C68.705 36.9849 69.5936 40.5317 69.5936 43.7176C69.5936 48.4785 67.5992 51.5457 63.9781 52.3542Z" fill="#E9672B"/>
<path d="M86.0056 67.3646C86.0056 66.3977 85.6549 65.4575 85.0319 64.7264V41.4366C85.0319 40.9189 84.6122 40.4991 84.0944 40.4991C83.5765 40.4991 83.1569 40.9189 83.1569 41.4366V65.098C83.1569 65.3551 83.2625 65.6009 83.449 65.7779C83.8886 66.1951 84.1306 66.7586 84.1306 67.3645V68.3244C84.1306 68.6566 83.8604 68.927 83.5281 68.927H80.3584C80.0261 68.927 79.7558 68.6566 79.7558 68.3244V67.3645C79.7558 66.757 79.999 66.1924 80.4407 65.7746C80.6281 65.5975 80.7342 65.3511 80.7342 65.0934V60.6769C80.7342 60.1591 80.3146 59.7394 79.7967 59.7394H77.6028V37.7212C77.6028 34.1956 79.8808 31.1592 83.157 30.1249V37.1545C83.157 37.6722 83.5766 38.092 84.0945 38.092C84.6124 38.092 85.032 37.6722 85.032 37.1545V28.9375C85.032 28.6616 84.9105 28.3999 84.7 28.2216C84.4892 28.0435 84.2107 27.9671 83.939 28.013C79.1811 28.8135 75.7279 32.8964 75.7279 37.7212V60.6771C75.7279 61.1949 76.1475 61.6146 76.6654 61.6146H78.8594V64.7209C78.2332 65.4529 77.8809 66.3952 77.8809 67.3647V68.3246C77.8809 68.9062 78.0824 69.4416 78.419 69.8647C78.0823 70.2879 77.8809 70.8232 77.8809 71.4049V87.9071C77.8809 90.1471 79.7032 91.9696 81.9434 91.9696C84.1835 91.9696 86.0059 90.1471 86.0059 87.9071V71.4047C86.0059 70.8231 85.8044 70.2877 85.4677 69.8646C85.8045 69.4415 86.0059 68.9061 86.0059 68.3245V67.3646H86.0056ZM84.1306 87.907C84.1306 89.1131 83.1492 90.0945 81.9431 90.0945C80.737 90.0945 79.7556 89.1131 79.7556 87.907V71.4047C79.7556 71.0725 80.0259 70.8021 80.3581 70.8021H83.528C83.8602 70.8021 84.1305 71.0725 84.1305 71.4047V87.907H84.1306Z" fill="#E9672B"/>
</g>
<path d="M23.6605 169V155.221H26.6195V159.742L29.8812 155.221H33.3187L28.1039 162.037L34.559 169H30.7602L26.6195 164.322V169H23.6605ZM36.4527 157.359C36.1142 157.04 35.9449 156.653 35.9449 156.197C35.9449 155.742 36.1142 155.357 36.4527 155.045C36.7978 154.732 37.2079 154.576 37.6832 154.576C38.152 154.576 38.5523 154.732 38.8844 155.045C39.2164 155.357 39.3824 155.742 39.3824 156.197C39.3824 156.653 39.2164 157.04 38.8844 157.359C38.5523 157.678 38.152 157.838 37.6832 157.838C37.2079 157.838 36.7978 157.678 36.4527 157.359ZM36.3062 169V159.664H39.0699V169H36.3062ZM41.5984 161.861V159.664H43.2977V156.08H46.0613V159.664H48.0242V161.861H46.0613V169H43.2977V161.861H41.5984ZM49.8301 164.303C49.8301 163.587 49.9668 162.923 50.2402 162.311C50.5202 161.699 50.8945 161.188 51.3633 160.777C51.832 160.361 52.3724 160.038 52.9844 159.811C53.5964 159.576 54.2376 159.459 54.9082 159.459C55.7415 159.459 56.513 159.635 57.2227 159.986C57.9388 160.331 58.5215 160.816 58.9707 161.441L56.7051 163.062C56.5163 162.77 56.2591 162.538 55.9336 162.369C55.6146 162.2 55.2728 162.115 54.9082 162.115C54.2897 162.115 53.7461 162.32 53.2773 162.73C52.8151 163.134 52.584 163.658 52.584 164.303C52.584 164.947 52.8151 165.481 53.2773 165.904C53.7461 166.327 54.2897 166.539 54.9082 166.539C55.2728 166.539 55.6146 166.458 55.9336 166.295C56.2591 166.126 56.5163 165.895 56.7051 165.602L58.9707 167.203C58.5345 167.835 57.9583 168.326 57.2422 168.678C56.526 169.023 55.748 169.195 54.9082 169.195C54.0098 169.195 53.1764 168.997 52.4082 168.6C51.64 168.196 51.0182 167.617 50.543 166.861C50.0677 166.106 49.8301 165.253 49.8301 164.303ZM61.6945 169V154.576H64.4777V161.119C64.5949 160.755 64.8098 160.442 65.1223 160.182C65.4413 159.921 65.7701 159.736 66.1086 159.625C66.4471 159.514 66.7759 159.459 67.0949 159.459C68.3124 159.459 69.2401 159.846 69.8781 160.621C70.5161 161.396 70.8352 162.496 70.8352 163.922V169H68.052V164.02C68.052 163.447 67.8794 162.994 67.5344 162.662C67.1893 162.33 66.7889 162.164 66.3332 162.164C65.8254 162.164 65.3892 162.317 65.0246 162.623C64.66 162.929 64.4777 163.408 64.4777 164.059V169H61.6945ZM74.1742 166.871C73.738 166.116 73.5199 165.26 73.5199 164.303C73.5199 163.346 73.738 162.496 74.1742 161.754C74.6169 161.012 75.2061 160.445 75.9418 160.055C76.684 159.658 77.501 159.459 78.393 159.459C79.0505 159.459 79.6723 159.579 80.2582 159.82C80.8441 160.061 81.352 160.393 81.7816 160.816C82.2113 161.24 82.5499 161.76 82.7973 162.379C83.0512 162.991 83.1781 163.658 83.1781 164.381C83.1781 164.628 83.1651 164.915 83.1391 165.24H76.2934C76.3585 165.742 76.6189 166.129 77.0746 166.402C77.5368 166.669 78.0447 166.803 78.598 166.803C79.0017 166.803 79.3858 166.728 79.7504 166.578C80.1215 166.428 80.4177 166.21 80.6391 165.924L82.6605 167.301C82.2243 167.952 81.6221 168.43 80.8539 168.736C80.0857 169.042 79.2654 169.195 78.393 169.195C77.501 169.195 76.684 168.997 75.9418 168.6C75.2061 168.196 74.6169 167.62 74.1742 166.871ZM76.3324 163.502H80.3754C80.3103 162.975 80.0792 162.577 79.682 162.311C79.2914 162.037 78.8682 161.9 78.4125 161.9C77.9568 161.9 77.5238 162.034 77.1137 162.301C76.7035 162.561 76.4431 162.962 76.3324 163.502ZM85.8727 169V159.664H88.6559V161.021C88.9033 160.553 89.2743 160.175 89.7691 159.889C90.2704 159.602 90.7978 159.459 91.3512 159.459C92.4254 159.459 93.262 159.794 93.8609 160.465C94.4664 161.135 94.7691 162.122 94.7691 163.424V169H91.9957V164.02C91.9957 163.421 91.846 162.962 91.5465 162.643C91.2535 162.324 90.8629 162.164 90.3746 162.164C89.2288 162.164 88.6559 162.796 88.6559 164.059V169H85.8727Z" fill="#E9672B"/>
<defs>
<clipPath id="clip0_688_40">
<rect width="64" height="64" fill="white" transform="translate(28 28)"/>
</clipPath>
</defs>
</svg>
