<svg width="120" height="175" viewBox="0 0 120 175" fill="none" xmlns="http://www.w3.org/2000/svg">
<circle cx="60" cy="60" r="60" fill="#FBF8F5"/>
<path d="M90 54H87V41C87 40.7348 86.8946 40.4804 86.7071 40.2929C86.5196 40.1054 86.2652 40 86 40H74C73.7348 40 73.4804 40.1054 73.2929 40.2929C73.1054 40.4804 73 40.7348 73 41V54H54.7812L54.2812 52H61.5C62.4279 51.999 63.3176 51.6299 63.9737 50.9737C64.6299 50.3176 64.999 49.4279 65 48.5V35.5C64.999 34.5721 64.6299 33.6824 63.9737 33.0263C63.3176 32.3701 62.4279 32.001 61.5 32H36.5C35.5721 32.001 34.6824 32.3701 34.0263 33.0263C33.3701 33.6824 33.001 34.5721 33 35.5V48.5C33.001 49.4279 33.3701 50.3176 34.0263 50.9737C34.6824 51.6299 35.5721 51.999 36.5 52H43.7188L43.2188 54H30C29.7348 54 29.4804 54.1054 29.2929 54.2929C29.1054 54.4804 29 54.7348 29 55V87C29 87.2652 29.1054 87.5196 29.2929 87.7071C29.4804 87.8946 29.7348 88 30 88H33C33.2652 88 33.5196 87.8946 33.7071 87.7071C33.8946 87.5196 34 87.2652 34 87V68H65V87C65 87.2652 65.1054 87.5196 65.2929 87.7071C65.4804 87.8946 65.7348 88 66 88H69C69.2652 88 69.5196 87.8946 69.7071 87.7071C69.8946 87.5196 70 87.2652 70 87V84H86V87C86 87.2652 86.1054 87.5196 86.2929 87.7071C86.4804 87.8946 86.7348 88 87 88H90C90.2652 88 90.5196 87.8946 90.7071 87.7071C90.8946 87.5196 91 87.2652 91 87V55C91 54.7348 90.8946 54.4804 90.7071 54.2929C90.5196 54.1054 90.2652 54 90 54ZM81 42H85V54H81V42ZM75 42H79V54H75V42ZM35 35.5C35.0003 35.1023 35.1585 34.7209 35.4397 34.4397C35.7209 34.1585 36.1023 34.0003 36.5 34H61.5C61.8977 34.0003 62.2791 34.1585 62.5603 34.4397C62.8415 34.7209 62.9997 35.1023 63 35.5V47H35V35.5ZM36.5 50C36.1902 49.9994 35.8881 49.903 35.6352 49.7239C35.3823 49.5449 35.191 49.292 35.0875 49H62.9125C62.809 49.292 62.6177 49.5449 62.3648 49.7239C62.1119 49.903 61.8098 49.9994 61.5 50H36.5ZM52.7188 54H45.2812L45.7812 52H52.2188L52.7188 54ZM32 86H31V60H32V86ZM65 66H34V60H65V66ZM68 86H67V60H68V86ZM86 82H70V76H86V82ZM86 74H70V68H86V74ZM86 66H70V60H86V66ZM89 86H88V60H89V86ZM89 58H31V56H89V58Z" fill="#E9672B"/>
<path d="M75 64H81C81.2652 64 81.5196 63.8946 81.7071 63.7071C81.8946 63.5196 82 63.2652 82 63C82 62.7348 81.8946 62.4804 81.7071 62.2929C81.5196 62.1054 81.2652 62 81 62H75C74.7348 62 74.4804 62.1054 74.2929 62.2929C74.1054 62.4804 74 62.7348 74 63C74 63.2652 74.1054 63.5196 74.2929 63.7071C74.4804 63.8946 74.7348 64 75 64Z" fill="#E9672B"/>
<path d="M81 70H75C74.7348 70 74.4804 70.1054 74.2929 70.2929C74.1054 70.4804 74 70.7348 74 71C74 71.2652 74.1054 71.5196 74.2929 71.7071C74.4804 71.8946 74.7348 72 75 72H81C81.2652 72 81.5196 71.8946 81.7071 71.7071C81.8946 71.5196 82 71.2652 82 71C82 70.7348 81.8946 70.4804 81.7071 70.2929C81.5196 70.1054 81.2652 70 81 70Z" fill="#E9672B"/>
<path d="M81 78H75C74.7348 78 74.4804 78.1054 74.2929 78.2929C74.1054 78.4804 74 78.7348 74 79C74 79.2652 74.1054 79.5196 74.2929 79.7071C74.4804 79.8946 74.7348 80 75 80H81C81.2652 80 81.5196 79.8946 81.7071 79.7071C81.8946 79.5196 82 79.2652 82 79C82 78.7348 81.8946 78.4804 81.7071 78.2929C81.5196 78.1054 81.2652 78 81 78Z" fill="#E9672B"/>
<path d="M52 62H46C45.7348 62 45.4804 62.1054 45.2929 62.2929C45.1054 62.4804 45 62.7348 45 63C45 63.2652 45.1054 63.5196 45.2929 63.7071C45.4804 63.8946 45.7348 64 46 64H52C52.2652 64 52.5196 63.8946 52.7071 63.7071C52.8946 63.5196 53 63.2652 53 63C53 62.7348 52.8946 62.4804 52.7071 62.2929C52.5196 62.1054 52.2652 62 52 62Z" fill="#E9672B"/>
<path d="M4.98945 155.221H8.15351L10.8293 163.902C11.1743 162.685 11.7863 160.439 12.6652 157.164H15.0676L16.8937 163.902L19.5891 155.221H22.7727L18.0852 169H15.7902L13.8469 161.764L11.9523 169H9.62812L4.98945 155.221ZM23.3285 164.303C23.3285 163.352 23.5466 162.506 23.9828 161.764C24.4255 161.015 25.0115 160.445 25.7406 160.055C26.4763 159.658 27.2836 159.459 28.1625 159.459C29.0414 159.459 29.8487 159.658 30.5844 160.055C31.3201 160.445 31.9092 161.015 32.352 161.764C32.8012 162.506 33.0258 163.352 33.0258 164.303C33.0258 165.253 32.8012 166.103 32.352 166.852C31.9092 167.6 31.3201 168.173 30.5844 168.57C29.8487 168.961 29.0414 169.156 28.1625 169.156C27.2836 169.156 26.4763 168.961 25.7406 168.57C25.0115 168.173 24.4255 167.604 23.9828 166.861C23.5466 166.113 23.3285 165.26 23.3285 164.303ZM26.0629 164.303C26.0629 164.934 26.2647 165.449 26.6684 165.846C27.0785 166.243 27.5766 166.441 28.1625 166.441C28.7615 166.441 29.2628 166.246 29.6664 165.855C30.0766 165.458 30.2816 164.941 30.2816 164.303C30.2816 163.684 30.0766 163.176 29.6664 162.779C29.2562 162.382 28.7549 162.184 28.1625 162.184C27.5766 162.184 27.0785 162.382 26.6684 162.779C26.2647 163.176 26.0629 163.684 26.0629 164.303ZM35.818 169V159.664H38.6012V161.92C38.8225 161.113 39.1839 160.501 39.6852 160.084C40.1865 159.667 40.704 159.459 41.2379 159.459C41.8629 159.459 42.3967 159.573 42.8395 159.801L42.3414 162.301C41.9573 162.112 41.482 162.018 40.9156 162.018C40.1214 162.018 39.5354 162.327 39.1578 162.945C38.7867 163.564 38.6012 164.495 38.6012 165.738V169H35.818ZM45.075 169V154.576H47.8387V162.223L50.0555 159.664H53.6004L49.7137 163.775L54.3719 169H50.9539L47.8387 165.299V169H45.075ZM55.5137 165.982H58.1113C58.1243 166.262 58.2643 166.513 58.5312 166.734C58.7982 166.949 59.1172 167.057 59.4883 167.057C59.8073 167.044 60.0775 166.969 60.2988 166.832C60.5202 166.689 60.6309 166.503 60.6309 166.275C60.6309 166.074 60.5625 165.914 60.4258 165.797C60.2891 165.673 60.0514 165.569 59.7129 165.484L58.4922 165.162C57.9583 165.019 57.5026 164.84 57.125 164.625C56.7474 164.41 56.4674 164.208 56.2852 164.02C56.1029 163.824 55.9629 163.596 55.8652 163.336C55.7676 163.069 55.7122 162.857 55.6992 162.701C55.6862 162.545 55.6829 162.35 55.6895 162.115C55.7025 161.419 56.0703 160.803 56.793 160.27C57.5156 159.729 58.362 159.459 59.332 159.459C59.7161 159.459 60.084 159.495 60.4355 159.566C60.7936 159.632 61.1387 159.742 61.4707 159.898C61.8092 160.055 62.099 160.25 62.3398 160.484C62.5872 160.719 62.7858 161.015 62.9355 161.373C63.0853 161.725 63.1634 162.122 63.1699 162.564H60.5527C60.5397 162.018 60.1849 161.744 59.4883 161.744C59.1888 161.744 58.9479 161.809 58.7656 161.939C58.5898 162.063 58.5052 162.229 58.5117 162.438C58.5378 162.776 58.8112 163.01 59.332 163.141L60.9141 163.561C61.3438 163.678 61.7181 163.834 62.0371 164.029C62.3626 164.218 62.61 164.41 62.7793 164.605C62.9551 164.801 63.0951 165.012 63.1992 165.24C63.3099 165.468 63.3783 165.663 63.4043 165.826C63.4368 165.982 63.4531 166.132 63.4531 166.275C63.4531 166.751 63.3359 167.18 63.1016 167.564C62.8672 167.949 62.5547 168.258 62.1641 168.492C61.7734 168.72 61.3405 168.893 60.8652 169.01C60.3965 169.133 59.9115 169.195 59.4102 169.195C59.026 169.195 58.6484 169.15 58.2773 169.059C57.9062 168.974 57.5547 168.844 57.2227 168.668C56.8906 168.486 56.5977 168.271 56.3438 168.023C56.0898 167.77 55.888 167.467 55.7383 167.115C55.5951 166.764 55.5202 166.386 55.5137 165.982ZM66.2062 173.58V159.664H68.9699V160.816C69.1978 160.393 69.5624 160.061 70.0637 159.82C70.565 159.579 71.1118 159.459 71.7043 159.459C72.3033 159.459 72.8762 159.576 73.423 159.811C73.9699 160.038 74.4484 160.361 74.8586 160.777C75.2753 161.188 75.6073 161.699 75.8547 162.311C76.1021 162.923 76.2258 163.587 76.2258 164.303C76.2258 165.032 76.1021 165.709 75.8547 166.334C75.6073 166.952 75.2753 167.47 74.8586 167.887C74.4484 168.297 73.9699 168.619 73.423 168.854C72.8762 169.081 72.3033 169.195 71.7043 169.195C71.1053 169.195 70.5552 169.078 70.0539 168.844C69.5526 168.603 69.1913 168.274 68.9699 167.857V173.58H66.2062ZM69.0285 164.361C69.0285 165.032 69.2368 165.569 69.6535 165.973C70.0767 166.376 70.5878 166.578 71.1867 166.578C71.7922 166.578 72.3033 166.373 72.7199 165.963C73.1366 165.553 73.3449 165.019 73.3449 164.361C73.3449 163.691 73.1366 163.147 72.7199 162.73C72.3033 162.307 71.7922 162.096 71.1867 162.096C70.5943 162.096 70.0865 162.311 69.6633 162.74C69.2401 163.163 69.0285 163.704 69.0285 164.361ZM78.4809 164.322C78.4809 163.6 78.6143 162.929 78.8813 162.311C79.1547 161.686 79.516 161.171 79.9652 160.768C80.4145 160.357 80.9223 160.038 81.4887 159.811C82.0551 159.576 82.6378 159.459 83.2367 159.459C83.4906 159.459 83.7608 159.488 84.0473 159.547C84.3402 159.599 84.6755 159.726 85.0531 159.928C85.4372 160.123 85.74 160.38 85.9613 160.699V159.664H88.7152V169H85.9613V167.936C85.6944 168.339 85.2843 168.648 84.7309 168.863C84.184 169.072 83.6859 169.176 83.2367 169.176C82.4294 169.176 81.6677 168.984 80.9516 168.6C80.2354 168.215 79.643 167.649 79.1742 166.9C78.712 166.145 78.4809 165.286 78.4809 164.322ZM82.0648 162.73C81.5961 163.147 81.3617 163.678 81.3617 164.322C81.3617 164.967 81.5961 165.497 82.0648 165.914C82.5401 166.331 83.0837 166.539 83.6957 166.539C84.3012 166.539 84.8285 166.337 85.2777 165.934C85.7335 165.523 85.9613 164.986 85.9613 164.322C85.9613 163.652 85.7335 163.115 85.2777 162.711C84.8285 162.301 84.3012 162.096 83.6957 162.096C83.0837 162.096 82.5401 162.307 82.0648 162.73ZM91.5269 164.303C91.5269 163.587 91.6637 162.923 91.9371 162.311C92.2171 161.699 92.5914 161.188 93.0602 160.777C93.5289 160.361 94.0693 160.038 94.6812 159.811C95.2932 159.576 95.9345 159.459 96.6051 159.459C97.4384 159.459 98.2099 159.635 98.9195 159.986C99.6357 160.331 100.218 160.816 100.668 161.441L98.4019 163.062C98.2131 162.77 97.956 162.538 97.6305 162.369C97.3115 162.2 96.9697 162.115 96.6051 162.115C95.9866 162.115 95.443 162.32 94.9742 162.73C94.512 163.134 94.2809 163.658 94.2809 164.303C94.2809 164.947 94.512 165.481 94.9742 165.904C95.443 166.327 95.9866 166.539 96.6051 166.539C96.9697 166.539 97.3115 166.458 97.6305 166.295C97.956 166.126 98.2131 165.895 98.4019 165.602L100.668 167.203C100.231 167.835 99.6552 168.326 98.9391 168.678C98.2229 169.023 97.4449 169.195 96.6051 169.195C95.7066 169.195 94.8733 168.997 94.1051 168.6C93.3368 168.196 92.7151 167.617 92.2398 166.861C91.7646 166.106 91.5269 165.253 91.5269 164.303ZM103.372 166.871C102.936 166.116 102.718 165.26 102.718 164.303C102.718 163.346 102.936 162.496 103.372 161.754C103.815 161.012 104.404 160.445 105.139 160.055C105.882 159.658 106.699 159.459 107.591 159.459C108.248 159.459 108.87 159.579 109.456 159.82C110.042 160.061 110.55 160.393 110.979 160.816C111.409 161.24 111.748 161.76 111.995 162.379C112.249 162.991 112.376 163.658 112.376 164.381C112.376 164.628 112.363 164.915 112.337 165.24H105.491C105.556 165.742 105.817 166.129 106.272 166.402C106.735 166.669 107.242 166.803 107.796 166.803C108.199 166.803 108.583 166.728 108.948 166.578C109.319 166.428 109.615 166.21 109.837 165.924L111.858 167.301C111.422 167.952 110.82 168.43 110.052 168.736C109.283 169.042 108.463 169.195 107.591 169.195C106.699 169.195 105.882 168.997 105.139 168.6C104.404 168.196 103.815 167.62 103.372 166.871ZM105.53 163.502H109.573C109.508 162.975 109.277 162.577 108.88 162.311C108.489 162.037 108.066 161.9 107.61 161.9C107.154 161.9 106.721 162.034 106.311 162.301C105.901 162.561 105.641 162.962 105.53 163.502Z" fill="#E9672B"/>
</svg>
